<svg xmlns="http://www.w3.org/2000/svg" width="18" height="18"><path fill="#F0F3FA" d="M0 0h18v18H0z"/><path fill="#02AA69" d="M3.996 4h5v5h-5z"/><path fill="#383C95" d="M6.499 11.499v-2.5H4V14h5v-2.501H6.499z"/><path fill="#FFDE16" d="M5.952 12.02C6.431 12.5 4 10.03 4 10.03V14h3.96s-2.486-2.462-2.008-1.98z"/><path fill="#EC3E36" d="M11.5 11.5H8.997L8.993 14H14V8.994L11.5 9v2.5z"/><path fill="#383C95" d="M8.995 4L9 6.499h2.5v2.5H14V4H8.994z"/><path fill="#000" d="M8.999 9H6.002v2.997H9V9z"/><path fill="#fff" d="M9 6.003H6.002V9H9V6.003zM12 9H9v2.997h3V9z"/><path fill="#000" d="M11.996 6.002H9V9h2.996V6.002z"/><path fill="#FFDE16" d="M12 12h-1v2h1v-2zM10 12H9v2h1v-2zM14 8.996h-1v5.002h1V8.996zM14 4h-2.004v2.004H14V4z"/><circle cx="10.498" cy="7.478" r=".643" fill="#EC3E36"/><circle cx="7.501" cy="10.498" r=".643" fill="#EC3E36"/><circle cx="7.501" cy="7.478" r=".643" fill="#000"/><circle cx="10.498" cy="10.498" r=".643" fill="#000"/></svg>